<svg width="32" height="32" viewBox="0 0 32 32" fill="none" xmlns="http://www.w3.org/2000/svg">
<path d="M16.485 29.7546C15.5478 29.7546 14.6004 29.6628 13.6468 29.4712C9.97406 28.735 6.81601 26.6499 4.75507 23.6032C2.69413 20.5564 1.97434 16.9091 2.73104 13.3356C4.29366 5.95908 11.7315 1.19439 19.3149 2.71478C26.8963 4.23517 31.7934 11.474 30.2307 18.8505C28.865 25.3011 23.0041 29.7526 16.485 29.7526V29.7546Z" fill="#F0F2F0"/>
<path d="M23.1047 29.6109C22.9509 29.6109 22.8053 29.5191 22.7479 29.3715C17.7114 16.6517 27.5937 6.10672 27.6942 6.00097C27.8398 5.84933 28.0818 5.84135 28.2356 5.98102C28.3914 6.12068 28.3996 6.35812 28.2561 6.50776C28.1597 6.60952 18.6014 16.8233 23.4657 29.1021C23.5415 29.2936 23.4431 29.5091 23.2462 29.585C23.2011 29.6009 23.154 29.6109 23.1088 29.6109H23.1047Z" fill="#FB9700"/>
<path d="M27.6655 10.8435C27.5404 10.8435 27.4194 10.7856 27.3456 10.6759C26.0987 8.84624 23.4964 8.26362 23.4718 8.25763C23.2647 8.21374 23.1355 8.01421 23.1806 7.81269C23.2257 7.61117 23.4308 7.48347 23.6359 7.52936C23.7548 7.5553 26.5643 8.17782 27.9833 10.2629C28.1002 10.4345 28.051 10.6659 27.8746 10.7796C27.809 10.8215 27.7352 10.8415 27.6634 10.8415L27.6655 10.8435Z" fill="#FB9700"/>
<path d="M25.6169 14.7542C25.5041 14.7542 25.3933 14.7063 25.3175 14.6145C23.9107 12.8966 21.2674 12.5395 21.2407 12.5355C21.0315 12.5075 20.8839 12.322 20.9105 12.1165C20.9372 11.9109 21.1279 11.7673 21.3391 11.7952C21.4601 11.8112 24.3147 12.1923 25.9163 14.1476C26.0475 14.3092 26.0208 14.5427 25.8547 14.6724C25.785 14.7263 25.6989 14.7542 25.6169 14.7542Z" fill="#FB9700"/>
<path d="M19.1222 22.0509C18.9746 22.0509 18.8331 21.9671 18.7695 21.8254C18.6854 21.6358 18.7756 21.4164 18.9705 21.3366C19.0833 21.2887 21.7368 20.1993 24.1423 21.0852C24.3392 21.157 24.4396 21.3725 24.3658 21.566C24.292 21.7596 24.0705 21.8553 23.8716 21.7835C21.7635 21.0073 19.3006 22.013 19.276 22.0229C19.2268 22.0429 19.1755 22.0529 19.1243 22.0529L19.1222 22.0509Z" fill="#FB9700"/>
<path d="M24.3945 18.1541C24.3207 18.1541 24.2449 18.1322 24.1792 18.0883C22.309 16.8453 19.68 17.2643 19.6534 17.2682C19.4462 17.3042 19.2473 17.1665 19.2104 16.963C19.1735 16.7595 19.315 16.5679 19.5242 16.532C19.6431 16.512 22.4874 16.0591 24.6099 17.4718C24.7842 17.5875 24.8293 17.8209 24.7104 17.9905C24.6365 18.0963 24.5155 18.1521 24.3945 18.1521V18.1541Z" fill="#FB9700"/>
<path d="M19.8483 26.8016C19.7109 26.8016 19.5796 26.7297 19.5099 26.606C19.4094 26.4245 19.4792 26.199 19.6658 26.1012C19.7724 26.0454 22.3194 24.7325 24.7945 25.4109C24.9976 25.4667 25.1165 25.6723 25.0591 25.8698C25.0017 26.0673 24.7884 26.185 24.5874 26.1272C22.4137 25.5326 20.0534 26.7437 20.0308 26.7577C19.9734 26.7876 19.9119 26.8016 19.8503 26.8016H19.8483Z" fill="#FB9700"/>
<path d="M5.03803 26.0913C4.94165 26.0913 4.84527 26.0554 4.76939 25.9855C4.61764 25.8419 4.61559 25.6064 4.76324 25.4588C14.219 16.0511 9.59261 2.99213 9.54544 2.86243C9.47572 2.66889 9.57825 2.4554 9.77717 2.38557C9.97814 2.31573 10.1955 2.41749 10.2673 2.61103C10.3165 2.74671 15.109 16.2327 5.31283 25.9795C5.23695 26.0534 5.13852 26.0913 5.03803 26.0913Z" fill="#FB9700"/>
<path d="M8.47712 7.10038C8.35203 7.10038 8.22899 7.04053 8.15517 6.93079C8.03828 6.75919 8.08954 6.52774 8.2659 6.41401C10.4171 5.04526 13.2511 5.55406 13.3701 5.576C13.5772 5.61391 13.7146 5.80945 13.6736 6.01297C13.6346 6.21449 13.4357 6.34617 13.2265 6.31026C13.1999 6.30427 10.575 5.83938 8.68424 7.04052C8.62067 7.08243 8.5489 7.10038 8.47712 7.10038Z" fill="#FB9700"/>
<path d="M8.76842 11.48C8.63102 11.48 8.49978 11.4081 8.43005 11.2824C8.32957 11.1009 8.40134 10.8754 8.58796 10.7776C10.854 9.59645 13.6306 10.3447 13.7475 10.3766C13.9505 10.4325 14.0694 10.638 14.012 10.8375C13.9546 11.035 13.7413 11.1508 13.5383 11.0949C13.5117 11.0889 10.938 10.3985 8.94888 11.4361C8.89146 11.466 8.82994 11.48 8.76842 11.48Z" fill="#FB9700"/>
<path d="M11.7686 20.6781C11.6681 20.6781 11.5656 20.6382 11.4897 20.5624C11.4712 20.5445 9.61946 18.6729 7.36575 18.5731C7.15453 18.5632 6.99048 18.3896 7.00073 18.1841C7.01098 17.9785 7.19555 17.8229 7.40061 17.8289C9.97012 17.9406 11.9634 19.9638 12.0475 20.0496C12.1931 20.1993 12.1869 20.4347 12.0331 20.5764C11.9593 20.6442 11.8629 20.6781 11.7686 20.6781Z" fill="#FB9700"/>
<path d="M13.2778 16.113C13.2061 16.113 13.1343 16.093 13.0707 16.0531C13.0482 16.0391 10.7986 14.6444 8.58176 15.0654C8.37464 15.1053 8.17367 14.9737 8.13266 14.7701C8.09165 14.5686 8.22699 14.3731 8.43616 14.3332C10.9606 13.8543 13.3886 15.3627 13.489 15.4266C13.6675 15.5383 13.7167 15.7698 13.6018 15.9414C13.528 16.0511 13.405 16.111 13.2799 16.111L13.2778 16.113Z" fill="#FB9700"/>
<path d="M9.17037 24.7644C9.05758 24.7644 8.9448 24.7165 8.86892 24.6227C8.85252 24.6028 7.1771 22.5796 4.93981 22.2903C4.73064 22.2623 4.58299 22.0748 4.60965 21.8713C4.63836 21.6677 4.82907 21.5241 5.04029 21.55C7.58929 21.8792 9.3939 24.0641 9.46977 24.1578C9.60102 24.3194 9.57231 24.5529 9.40825 24.6806C9.33853 24.7345 9.25445 24.7644 9.17037 24.7644Z" fill="#FB9700"/>
<path d="M16.3949 30C15.4351 30 14.4631 29.9062 13.487 29.7107C9.72398 28.9565 6.48595 26.8196 4.37374 23.697C2.26154 20.5744 1.52534 16.8373 2.3005 13.174C3.90209 5.61391 11.5245 0.731511 19.2966 2.28981C27.0666 3.84811 32.0847 11.2665 30.4831 18.8245C29.0825 25.4348 23.076 29.998 16.3969 29.998L16.3949 30ZM16.3867 2.65295C10.0172 2.65295 4.29172 7.00461 2.95672 13.3056C2.21642 16.7974 2.91981 20.3589 4.93358 23.3378C6.94735 26.3148 10.0336 28.3519 13.6223 29.0722C21.0274 30.5567 28.2991 25.9017 29.8248 18.6949C31.3526 11.488 26.5683 4.41476 19.1592 2.93029C18.2302 2.74473 17.3013 2.65295 16.3867 2.65295Z" fill="#00382B"/>
</svg>
