<svg width="32" height="32" viewBox="0 0 32 32" fill="none" xmlns="http://www.w3.org/2000/svg">
<path d="M15.9955 29.5563C15.1383 29.5563 14.2691 29.4757 13.3958 29.3083C5.94166 27.8763 1.04081 20.6481 2.47275 13.194C3.90266 5.73983 11.1208 0.843012 18.5891 2.2689C26.0432 3.69881 30.944 10.9291 29.5121 18.3832C28.2476 24.9641 22.4634 29.5563 15.9955 29.5563Z" fill="#F0F2F0"/>
<path d="M17.0241 27.4346C23.8843 27.4346 29.4456 21.8733 29.4456 15.0131C29.4456 8.15286 23.8843 2.59155 17.0241 2.59155C10.1639 2.59155 4.60257 8.15286 4.60257 15.0131C4.60257 21.8733 10.1639 27.4346 17.0241 27.4346Z" fill="#FE594F"/>
<path d="M27.7233 8.34955C27.7173 8.33946 27.7233 8.32534 27.7152 8.31728C27.7112 8.31122 27.7011 8.31123 27.6951 8.30518C25.6883 5.25172 22.5058 2.97475 18.6436 2.23458C18.4722 2.20231 18.3028 2.19021 18.1314 2.16399C18.1152 2.15592 18.1092 2.13777 18.093 2.13172C18.0547 2.11962 18.0204 2.1418 17.9801 2.1418C13.9727 1.57105 10.0823 2.7529 7.14176 5.1529C7.13571 5.15693 7.12562 5.1529 7.11957 5.15895C7.11352 5.16299 7.11554 5.17105 7.1115 5.17509C4.66915 7.1798 2.88427 10.0114 2.24292 13.3512C2.04326 14.3879 1.97671 15.4185 2.00696 16.4309C2.00696 16.437 2.00292 16.441 2.00292 16.445C2.00292 16.447 2.00696 16.4491 2.00696 16.4511C2.10981 19.561 3.24528 22.4914 5.14511 24.8269C5.14915 24.8329 5.14511 24.843 5.15116 24.8491C5.1552 24.8551 5.16528 24.8531 5.16932 24.8592C7.17402 27.3116 10.0117 29.1045 13.3576 29.7479C14.245 29.9173 15.1303 30 16.0036 30C22.5865 30 28.4736 25.3271 29.7583 18.6292C30.4682 14.9264 29.6352 11.282 27.7213 8.34753L27.7233 8.34955ZM29.1956 16.0296C27.9492 16.1385 24.3149 16.1627 21.3058 13.5126L27.2635 9.14618C28.5038 11.1832 29.2016 13.5509 29.1956 16.0296ZM26.8319 8.4645L20.7008 12.958C18.21 10.3563 17.3004 6.59492 18.2745 2.99491C18.3472 3.00702 18.4177 3.01105 18.4903 3.02517C22.0117 3.7008 24.932 5.72971 26.8319 8.4645ZM15.9956 2.7892C16.4856 2.7892 16.9777 2.8255 17.4739 2.88197C16.4756 6.69173 17.4396 10.6568 20.0473 13.438L16.5663 15.9892L7.96865 5.55828C10.2315 3.81979 13.0308 2.7892 15.9956 2.7892ZM7.34344 6.06853L15.9149 16.4652L12.3492 19.079C12.1737 18.9015 12.0144 18.7159 11.8248 18.5486C8.4426 15.5334 4.34847 15.7049 2.80763 15.9045C2.81368 15.1119 2.88024 14.3112 3.03351 13.5045C3.61032 10.4954 5.19352 7.94013 7.34344 6.06853ZM2.83183 16.7173C4.17704 16.5297 8.0715 16.2837 11.2883 19.1516C11.4335 19.2827 11.5566 19.4259 11.6937 19.561L5.56864 24.0504C3.96326 21.9691 2.98108 19.4238 2.83183 16.7173ZM6.07688 24.6756L12.2645 20.1418C14.4466 22.6326 15.2392 25.8232 14.4487 29.0924C14.1361 29.0561 13.8255 29.0219 13.5108 28.9613C10.5078 28.3845 7.94646 26.8195 6.07688 24.6756ZM15.2534 29.163C16.054 25.6941 15.2171 22.3119 12.9199 19.6618L16.4271 17.0904L24.0971 26.396C21.6346 28.3099 18.5145 29.3486 15.2534 29.163ZM24.7183 25.8817L17.0786 16.6144L20.6282 14.0127C23.3045 16.4531 26.493 16.8786 28.3162 16.8786C28.6551 16.8786 28.9334 16.8645 29.1633 16.8464C29.127 17.3889 29.0705 17.9354 28.9657 18.484C28.3929 21.4669 26.842 24.0141 24.7183 25.8817Z" fill="#00382B"/>
</svg>
