<svg width="32" height="32" viewBox="0 0 32 32" fill="none" xmlns="http://www.w3.org/2000/svg">
<path d="M29.5649 11.9411C29.4444 11.7832 29.2789 11.0624 29.1905 10.4619L29.4958 9.21098C29.5183 9.12029 29.4894 9.02334 29.4203 8.95767C29.3512 8.892 29.2483 8.86854 29.1583 8.88887L28.223 9.12498C27.7473 7.98194 26.4375 7.93816 25.7658 8.09296C24.4801 8.43541 20.2727 8.69967 20.2293 8.70436C20.1055 8.71061 20.0011 8.79818 19.977 8.91858C19.8789 9.38455 21.253 9.9678 21.9425 10.2414C19.6363 11.1499 16.4124 12.4087 15.8548 12.576C15.2264 12.7636 13.9954 12.6432 13.4939 12.5822C13.1147 12.5385 12.7322 12.576 12.3834 12.6995C12.2774 12.737 12.1584 12.7902 12.0395 12.8449C12.0379 12.7652 12.0106 12.6886 11.9399 12.637C11.0624 11.9943 9.05031 11.2281 7.71802 12.9044C7.28089 13.4532 6.97072 13.9958 6.69751 14.4743C6.00807 15.683 5.50826 16.5586 3.48171 16.7588C3.38367 16.7682 3.26796 16.7994 3.19243 16.8854C3.08797 17.0043 3.06225 17.1841 3.12975 17.3514C3.24064 17.6282 3.63599 17.991 4.88149 18.1348C5.03095 18.1505 5.18041 18.1598 5.32505 18.1598C6.72805 18.1598 7.92052 17.4015 8.51354 16.7228C8.50872 16.8495 8.50068 16.9777 8.48943 17.0997C8.483 17.1857 8.51675 17.2701 8.58425 17.3248C8.65175 17.3843 8.74014 17.403 8.82853 17.3827C8.87674 17.3733 9.98082 17.1012 10.3392 16.321C10.5224 16.9824 10.8374 17.5375 10.9836 17.772C10.9065 17.9456 10.7024 18.2724 10.2653 18.2849C9.84904 18.2974 9.55333 18.4022 9.39101 18.5961C9.27209 18.7384 9.24798 18.8994 9.26244 18.951C9.26244 18.9854 9.24316 19.8032 9.36369 21.2184C9.45851 22.3411 8.42032 22.5318 8.30301 22.549C8.16158 22.5725 8.05873 22.696 8.06837 22.8368L8.15997 23.9986C8.17122 24.1393 8.29015 24.2472 8.43479 24.2472C9.82493 24.2425 10.6301 23.2152 10.7056 22.2003C10.7715 21.3263 11.3629 20.2692 11.7165 20.0097C11.8547 19.9064 12.1938 19.8001 12.5216 19.6954C13.0841 19.5171 13.7238 19.3138 14.0564 18.951C14.4132 18.5617 14.6559 17.8393 14.8182 17.3592C14.8616 17.2295 14.8953 17.1216 14.9098 17.0684C15.4642 16.9464 15.9657 17.0668 16.6439 17.2326C17.2562 17.3827 18.0195 17.5719 19.0416 17.611C20.795 17.6892 21.7175 17.3499 22.055 17.1919C22.656 17.4734 22.9839 17.3999 23.4612 17.292L23.5431 17.2748C23.6299 17.2576 23.6701 17.2639 23.6765 17.2685C23.6829 17.2748 23.6894 17.2936 23.6926 17.3139C23.2956 17.7955 22.8392 18.2255 22.6962 18.2552C22.5114 18.2677 22.3153 18.0801 22.2575 18.0082C22.206 17.9409 22.153 17.9096 22.0389 17.9034C21.9569 17.9034 21.8766 17.9409 21.8251 18.0035L21.2257 18.7212C21.1421 18.8213 21.1437 18.9651 21.2289 19.0636C21.5455 19.4295 22.5917 19.6219 22.926 19.675C23.0031 19.675 23.7151 19.7094 24.7436 18.7415C25.8316 17.7173 25.2595 16.3163 25.2049 16.2053C24.7501 15.5704 24.3708 14.8605 24.3788 14.7213C24.5315 14.4727 24.5331 14.2475 24.5347 13.9849C24.5379 13.805 24.5395 13.6002 24.5894 13.3219C24.6777 12.823 24.9606 12.7464 25.4331 12.6182C25.6677 12.5557 25.8991 12.4228 26.0872 12.293C26.3732 13.2124 27.2266 13.3813 27.6461 13.4642C27.7248 13.4798 27.7939 13.4939 27.8453 13.5095C28.0012 13.558 28.366 13.9614 28.5846 14.2601C28.628 14.357 28.7373 14.4758 28.9108 14.5118C29.1342 14.5603 29.3753 14.4696 29.6517 14.2366C30.3203 13.6768 29.8494 12.3133 29.5649 11.9411Z" fill="#F0F2F0"/>
<path d="M11.7808 12.8246C11.7808 12.8246 8.96673 9.50496 6.71036 13.5392C4.14543 18.1223 2.33905 16.1286 2.04495 16.7072C1.75086 17.2858 2.95297 17.6173 4.10043 17.6829C5.68986 17.7736 6.54644 17.2342 8.20979 14.712C10.148 11.7723 11.7808 12.8246 11.7808 12.8246Z" fill="#FB9700"/>
<path d="M14.6463 13.0044C14.9805 14.5712 13.7254 15.8331 13.7254 15.9879C13.7254 16.7072 15.3357 14.5306 19.5415 15.4813C20.5684 15.7127 20.4383 14.5837 20.2647 13.5142C19.9883 11.8098 19.797 11.2234 19.4419 11.4142C18.0196 12.1788 16.7098 12.6776 15.7214 12.8574C15.2409 12.945 14.6479 13.0044 14.6479 13.0044H14.6463Z" fill="#FB9700"/>
<path d="M29.5714 11.913C29.4508 11.755 29.2853 11.0342 29.1969 10.4337L29.5023 9.18282C29.5248 9.09212 29.4958 8.99518 29.4267 8.9295C29.3576 8.86383 29.2548 8.84037 29.1648 8.8607L28.2294 9.09681C27.7537 7.95378 26.444 7.90999 25.7722 8.0648C24.4865 8.40724 20.2791 8.6715 20.2357 8.67619C20.112 8.68244 20.0075 8.77001 19.9834 8.89041C19.8854 9.35638 21.2595 9.93963 21.9489 10.2133C19.6427 11.1218 16.4189 12.3805 15.8612 12.5478C15.2328 12.7355 14.0018 12.6151 13.5004 12.5541C13.1211 12.5103 12.7386 12.5478 12.3899 12.6714C12.2838 12.7089 12.1649 12.762 12.046 12.8168C12.0443 12.737 12.017 12.6604 11.9463 12.6088C11.0688 11.9661 9.05675 11.1999 7.72446 12.8762C7.28733 13.425 6.97716 13.9676 6.70395 14.4461C6.01451 15.6548 5.5147 16.5305 3.48815 16.7306C3.39011 16.74 3.2744 16.7713 3.19887 16.8573C3.09441 16.9761 3.06869 17.1559 3.13619 17.3233C3.24708 17.6 3.64243 17.9628 4.88793 18.1066C5.03739 18.1223 5.18685 18.1317 5.33149 18.1317C6.73449 18.1317 7.92696 17.3733 8.51998 16.6947C8.51515 16.8213 8.50712 16.9495 8.49587 17.0715C8.48944 17.1575 8.52319 17.2419 8.59069 17.2967C8.65819 17.3561 8.74658 17.3749 8.83497 17.3545C8.88318 17.3451 9.98726 17.0731 10.3456 16.2928C10.5289 16.9542 10.8438 17.5093 10.9901 17.7439C10.9129 17.9174 10.7088 18.2443 10.2717 18.2568C9.85547 18.2693 9.55977 18.374 9.39745 18.5679C9.27853 18.7102 9.25442 18.8713 9.26888 18.9229C9.26888 18.9573 9.2496 19.7751 9.37013 21.1902C9.46495 22.3129 8.42676 22.5037 8.30945 22.5209C8.16802 22.5443 8.06517 22.6679 8.07481 22.8086L8.16641 23.9704C8.17766 24.1111 8.29659 24.219 8.44123 24.219C9.83137 24.2143 10.6365 23.187 10.7121 22.1722C10.778 21.2981 11.3694 20.2411 11.7229 19.9815C11.8611 19.8783 12.2002 19.772 12.5281 19.6672C13.0906 19.4889 13.7302 19.2857 14.0629 18.9229C14.4196 18.5335 14.6623 17.8111 14.8246 17.3311C14.868 17.2013 14.9018 17.0934 14.9162 17.0402C15.4707 16.9183 15.9721 17.0387 16.6503 17.2044C17.2626 17.3545 18.026 17.5437 19.0481 17.5828C20.8014 17.661 21.7239 17.3217 22.0614 17.1638C22.6625 17.4452 22.9903 17.3717 23.4676 17.2638L23.5496 17.2466C23.6364 17.2294 23.6765 17.2357 23.683 17.2404C23.6894 17.2466 23.6958 17.2654 23.699 17.2857C23.3021 17.7673 22.8457 18.1973 22.7026 18.2271C22.5178 18.2396 22.3217 18.0519 22.2639 17.98C22.2125 17.9128 22.1594 17.8815 22.0453 17.8752C21.9634 17.8752 21.883 17.9128 21.8316 17.9753L21.2321 18.693C21.1486 18.7931 21.1502 18.937 21.2353 19.0355C21.5519 19.4014 22.5982 19.5937 22.9324 19.6469C23.0096 19.6469 23.7215 19.6813 24.7501 18.7134C25.8381 17.6892 25.266 16.2881 25.2113 16.1771C24.7565 15.5422 24.3772 14.8323 24.3853 14.6932C24.5379 14.4445 24.5395 14.2194 24.5412 13.9567C24.5444 13.7769 24.546 13.572 24.5958 13.2937C24.6842 12.7949 24.967 12.7183 25.4395 12.59C25.6742 12.5275 25.9056 12.3946 26.0936 12.2648C26.3797 13.1842 27.233 13.3531 27.6525 13.436C27.7312 13.4516 27.8004 13.4657 27.8518 13.4813C28.0077 13.5298 28.3725 13.9332 28.591 14.2319C28.6344 14.3288 28.7437 14.4477 28.9173 14.4836C29.1407 14.5321 29.3817 14.4414 29.6582 14.2084C30.3267 13.6486 29.8558 12.2851 29.5714 11.913ZM10.2589 15.8722C10.2444 15.8644 10.2396 15.8487 10.2251 15.844C10.0789 15.8002 9.92458 15.8737 9.87637 16.016C9.76548 16.3444 9.38942 16.5743 9.07603 16.7087C9.11942 15.7612 8.95711 15.7205 8.7964 15.6798C8.52158 15.6157 8.38498 15.9003 8.34159 15.9973C8.0491 16.6305 6.58824 17.7908 4.95382 17.5719C4.24348 17.489 3.91563 17.3436 3.76778 17.2404C5.9004 16.9667 6.49985 15.9175 7.1893 14.7072C7.46572 14.2241 7.75017 13.7221 8.1632 13.2061C9.49709 11.5314 11.5301 12.9763 11.6169 13.0404C11.6233 13.0451 11.6313 13.0404 11.6377 13.0451C11.2456 13.2906 10.8438 13.6361 10.524 14.1584C10.1946 14.6963 10.1656 15.3046 10.2605 15.8722H10.2589ZM29.295 13.8003C29.1712 13.9035 29.0941 13.9379 29.0571 13.9504C28.9012 13.73 28.4207 13.0935 28.0237 12.9669C27.9546 12.9466 27.8662 12.9262 27.7634 12.9059C27.3359 12.8215 26.7509 12.7058 26.5982 12.0365L26.5806 11.73C26.5741 11.6237 26.505 11.5299 26.4038 11.4939C26.2993 11.4533 26.1852 11.4783 26.1097 11.5533C25.9908 11.6675 25.6131 11.9818 25.2467 12.0819C24.7806 12.2101 24.1988 12.3664 24.051 13.1999C23.9947 13.5204 23.9915 13.7581 23.9899 13.9489C23.9867 14.1865 23.9835 14.2976 23.9112 14.4148C23.7167 14.7323 24.0028 15.4265 24.7292 16.432C24.7485 16.4773 25.1824 17.5578 24.366 18.3271C23.5335 19.1105 22.9903 19.109 23.0016 19.1105C22.5933 19.0464 22.1176 18.9229 21.8509 18.804L22.0726 18.5382C22.2334 18.6586 22.4728 18.7931 22.7396 18.7603C23.1783 18.7321 23.8421 17.9831 24.1972 17.5406C24.2294 17.4999 24.2487 17.453 24.2535 17.4046C24.2583 17.367 24.2888 17.0434 24.0542 16.8385C23.9497 16.7463 23.7601 16.6462 23.4306 16.7197L23.3455 16.7384C22.8714 16.8448 22.6962 16.8823 22.1884 16.6212C22.0968 16.5774 21.9907 16.5805 21.9055 16.6352C21.8975 16.6399 21.1164 17.1106 19.0706 17.0449C18.1047 17.0058 17.404 16.8338 16.7869 16.6821C16.0428 16.4961 15.4032 16.3397 14.6639 16.5461C14.6237 16.5586 14.5852 16.5774 14.5546 16.6055C14.4662 16.6837 14.4261 16.7932 14.3023 17.1622C14.1641 17.5719 13.9343 18.2583 13.6547 18.5601C13.42 18.815 12.8318 19.0026 12.3593 19.1512C11.9543 19.281 11.604 19.392 11.3919 19.5483C10.884 19.9236 10.238 21.1308 10.164 22.13C10.1126 22.8133 9.63209 23.5435 8.69676 23.6592L8.64533 22.9931C9.23353 22.8164 10.0194 22.2848 9.92297 21.1417C9.80405 19.761 9.82333 18.9416 9.82173 18.9135C9.82815 18.8932 9.93422 18.8009 10.291 18.7931C11.0881 18.7681 11.4722 18.1176 11.5654 17.7783C11.5847 17.7048 11.5719 17.6235 11.5285 17.5609C11.5156 17.5422 10.246 15.6611 10.9981 14.4336C11.4513 13.6924 12.1086 13.339 12.5779 13.1749C12.8495 13.0763 13.1324 13.0513 13.4329 13.0842C14.0982 13.1686 15.3228 13.2734 16.0251 13.0591C16.9267 12.7871 24.2358 9.88803 24.4833 9.78014C24.4962 9.77857 25.7658 9.5925 26.6288 9.55184C26.7814 9.54559 26.8988 9.42049 26.8923 9.27194C26.8859 9.12809 26.7622 9.01394 26.6159 9.01394C26.6111 9.01394 26.6079 9.01394 26.6031 9.0155C25.7095 9.05616 24.4528 9.23911 24.337 9.26413C24.3146 9.27351 23.6074 9.5534 22.6142 9.94432C22.5869 9.91148 22.5676 9.87239 22.5259 9.85519C22.2832 9.75355 20.8304 9.29071 20.6905 9.17812C21.8059 9.10307 24.8111 8.87321 25.9072 8.5808C25.9699 8.56517 27.4468 8.25556 27.7811 9.4846C27.8196 9.62846 27.9675 9.70977 28.1169 9.67693L28.8562 9.48929L28.6457 10.3556C28.6376 10.3868 28.636 10.4197 28.6409 10.4541C28.6746 10.6886 28.8546 11.8739 29.1262 12.2304C29.3432 12.5134 29.618 13.5251 29.2933 13.7972L29.295 13.8003Z" fill="#00382B"/>
<path d="M26.8426 12.9419C26.7863 12.9419 26.7301 12.9294 26.677 12.9028C26.4954 12.8137 26.4231 12.5994 26.5131 12.4227C26.5452 12.3602 27.3488 10.8794 29.0202 11.0295C29.2227 11.053 29.3689 11.2297 29.3464 11.4251C29.3239 11.6206 29.1343 11.7394 28.9414 11.7441C27.7602 11.6253 27.1961 12.7011 27.172 12.7449C27.1061 12.8684 26.9775 12.9403 26.8426 12.9403V12.9419Z" fill="#FE594F"/>
<path d="M27.7232 13.5548C27.6669 13.5548 27.6107 13.5423 27.5577 13.5157C27.3777 13.4266 27.3037 13.2124 27.3953 13.0357C27.4211 12.9872 28.0671 11.8066 29.3865 11.9317C29.589 11.9552 29.7353 12.1319 29.7128 12.3273C29.6903 12.5228 29.5135 12.6479 29.3078 12.6463C28.4689 12.5431 28.0703 13.3265 28.0543 13.3609C27.99 13.4829 27.8582 13.5548 27.7232 13.5548Z" fill="#FE594F"/>
</svg>
