<svg width="32" height="32" viewBox="0 0 32 32" fill="none" xmlns="http://www.w3.org/2000/svg">
<path d="M18.8533 14.0309C18.4854 14.0309 18.1855 14.3577 18.1855 14.7585V16.4393C18.1855 16.8401 18.4854 17.1669 18.8533 17.1669H28.7286C29.0965 17.1669 29.3964 16.8401 29.3964 16.4393V14.7585C29.3964 14.3577 29.0965 14.0309 28.7286 14.0309H18.8533Z" fill="#F0F2F0"/>
<path d="M29.7383 21.2737C29.6784 20.8905 29.6284 20.6201 29.4664 20.5675C29.1865 20.4761 28.0588 20.4878 25.2735 20.6065C24.9776 20.6201 24.7617 20.6279 24.6797 20.6298L18.6213 20.7601L6.88649 7.33283C6.02872 6.28036 4.42515 6.07804 3.30745 6.88344C2.7636 7.27447 2.41369 7.84059 2.32172 8.47869C2.22974 9.11679 2.40969 9.751 2.83358 10.2743L17.0538 26.1684C17.1497 26.363 17.6416 26.5322 21.4866 26.5322C22.2504 26.5322 23.1441 26.5264 24.1958 26.5108C24.4098 26.5108 24.7097 26.4991 25.0496 26.4739C25.0656 26.4758 25.0776 26.4894 25.0936 26.4894C25.1056 26.4894 25.1156 26.4894 25.1256 26.4894C25.1456 26.4875 25.1556 26.47 25.1756 26.4641C26.0933 26.3844 27.249 26.1937 27.8329 25.8007C28.6007 25.2833 29.9203 22.4682 29.7383 21.2796V21.2737Z" fill="#F0F2F0"/>
<path d="M23.8139 15.741C26.9004 15.741 29.4024 15.1078 29.4024 14.3266C29.4024 13.5455 26.9004 12.9123 23.8139 12.9123C20.7275 12.9123 18.2254 13.5455 18.2254 14.3266C18.2254 15.1078 20.7275 15.741 23.8139 15.741Z" fill="#FE594F"/>
<path d="M26.4632 26.4972C27.131 26.4544 27.5609 24.651 25.5694 24.7327L16.034 24.9467L17.4056 26.5283C17.4056 26.5283 21.0546 26.8454 26.4632 26.4972Z" fill="#FE594F"/>
<path d="M13.5167 20.4761C13.0808 20.8457 12.6989 21.192 12.427 21.4469C12.179 21.6784 11.7831 21.6589 11.5572 21.408L2.52362 11.3579C1.75183 10.4961 1.84381 9.18877 2.72957 8.43589C3.61533 7.68496 4.95897 7.77445 5.73276 8.63627L14.9343 18.6202C15.1702 19.1026 14.4024 19.7252 13.5167 20.4761Z" fill="#FB9700"/>
<path d="M29.9863 20.8983C29.9263 20.4995 29.7183 20.3516 29.5544 20.2952C29.2725 20.1999 28.1348 20.2115 25.3295 20.336C25.0316 20.3497 24.8137 20.3594 24.7297 20.3613L18.6233 20.4956L6.80849 6.98072C5.94273 5.88545 4.32716 5.67534 3.19946 6.51382C2.65161 6.92041 2.29971 7.50987 2.20573 8.17326C2.11376 8.83665 2.29371 9.49615 2.72159 10.0409L17.0537 26.577C17.1517 26.7793 17.6456 26.9544 21.5205 26.9544C22.2903 26.9544 23.1921 26.9485 24.2518 26.933C24.4657 26.933 24.7717 26.9213 25.1136 26.8941C25.1296 26.896 25.1416 26.9096 25.1576 26.9096C25.1696 26.9096 25.1796 26.9096 25.1916 26.9096C25.2115 26.9077 25.2215 26.8882 25.2415 26.8824C26.1653 26.7987 27.331 26.6023 27.9188 26.1918C28.6926 25.6529 30.1682 22.1375 29.9843 20.9002L29.9863 20.8983ZM2.80157 8.25108C2.87155 7.74138 3.14348 7.2881 3.56337 6.97683C4.42913 6.33289 5.6748 6.49631 6.33662 7.34062C6.34062 7.34451 6.34262 7.3484 6.34662 7.3523L15.6881 18.0366L12.8549 20.8244L3.18947 9.67318C2.86955 9.26465 2.73159 8.75884 2.80357 8.24914L2.80157 8.25108ZM13.2408 21.2718L16.076 18.4821L18.2574 20.978C18.3154 21.0442 18.4414 21.087 18.4914 21.0811L19.673 21.0559L20.2909 26.3513C18.8932 26.3318 17.8035 26.2871 17.5236 26.2132L13.2408 21.2718ZM20.8967 26.3591L20.2769 21.0422L24.1958 20.9566L24.8217 26.326C24.6237 26.3377 24.4198 26.3513 24.2518 26.3493C23.1201 26.3649 21.9464 26.3688 20.8967 26.3591ZM25.4215 26.2735L24.7997 20.9411C24.9056 20.9372 25.0916 20.9294 25.3555 20.9177C26.2613 20.8769 29.0225 20.7582 29.3464 20.8399C29.3464 20.8399 29.4284 20.9333 29.3924 21.3399C29.2685 22.76 28.0508 25.3786 27.5709 25.7132C27.155 26.0011 26.2653 26.1801 25.4195 26.2715L25.4215 26.2735Z" fill="#00382B"/>
<path d="M28.4707 17.486H19.1552C18.4754 17.486 17.9236 16.9491 17.9236 16.2876V14.8694C17.9236 14.208 18.4754 13.6711 19.1552 13.6711H28.4707C29.1505 13.6711 29.7024 14.208 29.7024 14.8694V16.2876C29.7024 16.9491 29.1505 17.486 28.4707 17.486ZM19.1552 14.2566C18.8073 14.2566 18.5254 14.5329 18.5254 14.8694V16.2876C18.5254 16.6262 18.8093 16.9005 19.1552 16.9005H28.4707C28.8186 16.9005 29.1006 16.6242 29.1006 16.2876V14.8694C29.1006 14.5309 28.8166 14.2566 28.4707 14.2566H19.1552Z" fill="#00382B"/>
</svg>
